<?xml version="1.0" encoding="UTF-8" standalone="no"?>
<!DOCTYPE svg PUBLIC "-//W3C//DTD SVG 1.1//EN"
 "http://www.w3.org/Graphics/SVG/1.1/DTD/svg11.dtd">
<!-- Generated by graphviz version 13.1.2 (20250808.2320)
 -->
<!-- Pages: 1 -->
<svg width="1333pt" height="1310pt"
 viewBox="0.00 0.00 1333.00 1310.00" xmlns="http://www.w3.org/2000/svg" xmlns:xlink="http://www.w3.org/1999/xlink">
<g id="graph0" class="graph" transform="scale(1 1) rotate(0) translate(4 1306.45)">
<polygon fill="white" stroke="none" points="-4,4 -4,-1306.45 1328.67,-1306.45 1328.67,4 -4,4"/>
<!-- N514 -->
<g id="node1" class="node">
<title>N514</title>
<polygon fill="#e38851" stroke="red" stroke-width="6" points="663.84,-1197.45 490.34,-1197.45 490.34,-1139.95 663.84,-1139.95 663.84,-1197.45"/>
<text xml:space="preserve" text-anchor="middle" x="577.09" y="-1180.15" font-family="Times,serif" font-size="14.00">GraphWorkchain (8dfb8be6)</text>
<text xml:space="preserve" text-anchor="middle" x="577.09" y="-1163.65" font-family="Times,serif" font-size="14.00">State: finished</text>
<text xml:space="preserve" text-anchor="middle" x="577.09" y="-1147.15" font-family="Times,serif" font-size="14.00">Exit Code: 0</text>
</g>
<!-- N517 -->
<g id="node3" class="node">
<title>N517</title>
<polygon fill="#e38851" stroke="black" stroke-width="0" points="821.84,-1070.95 648.34,-1070.95 648.34,-1013.45 821.84,-1013.45 821.84,-1070.95"/>
<text xml:space="preserve" text-anchor="middle" x="735.09" y="-1053.65" font-family="Times,serif" font-size="14.00">AsyncWorkchain (e9d897ef)</text>
<text xml:space="preserve" text-anchor="middle" x="735.09" y="-1037.15" font-family="Times,serif" font-size="14.00">State: finished</text>
<text xml:space="preserve" text-anchor="middle" x="735.09" y="-1020.65" font-family="Times,serif" font-size="14.00">Exit Code: 0</text>
</g>
<!-- N514&#45;&gt;N517 -->
<g id="edge27" class="edge">
<title>N514&#45;&gt;N517</title>
<path fill="none" stroke="#000000" stroke-dasharray="1,5" d="M615.74,-1137.24C638.59,-1119.24 667.59,-1096.39 691.28,-1077.72"/>
<polygon fill="#000000" stroke="#000000" points="693.2,-1080.67 698.88,-1071.73 688.86,-1075.17 693.2,-1080.67"/>
<text xml:space="preserve" text-anchor="middle" x="716.89" y="-1108.65" font-family="Times,serif" font-size="14.00">CALL_WORK</text>
<text xml:space="preserve" text-anchor="middle" x="716.89" y="-1092.15" font-family="Times,serif" font-size="14.00">CALL</text>
</g>
<!-- N526 -->
<g id="node8" class="node">
<title>N526</title>
<polygon fill="#e38851" stroke="black" stroke-width="0" points="592.34,-690.97 415.84,-690.97 415.84,-633.47 592.34,-633.47 592.34,-690.97"/>
<text xml:space="preserve" text-anchor="middle" x="504.09" y="-673.67" font-family="Times,serif" font-size="14.00">AsyncWorkchain (9b76e933)</text>
<text xml:space="preserve" text-anchor="middle" x="504.09" y="-657.17" font-family="Times,serif" font-size="14.00">State: finished</text>
<text xml:space="preserve" text-anchor="middle" x="504.09" y="-640.67" font-family="Times,serif" font-size="14.00">Exit Code: 0</text>
</g>
<!-- N514&#45;&gt;N526 -->
<g id="edge37" class="edge">
<title>N514&#45;&gt;N526</title>
<path fill="none" stroke="#000000" stroke-dasharray="1,5" d="M487.36,-1152.35C428.02,-1136.47 361.09,-1104.88 361.09,-1043.2 361.09,-1043.2 361.09,-1043.2 361.09,-787.96 361.09,-747.45 394.07,-717.08 428.35,-696.46"/>
<polygon fill="#000000" stroke="#000000" points="429.79,-699.67 436.72,-691.65 426.31,-693.6 429.79,-699.67"/>
<text xml:space="preserve" text-anchor="middle" x="403.09" y="-918.9" font-family="Times,serif" font-size="14.00">CALL_WORK</text>
<text xml:space="preserve" text-anchor="middle" x="403.09" y="-902.4" font-family="Times,serif" font-size="14.00">CALL</text>
</g>
<!-- N535 -->
<g id="node13" class="node">
<title>N535</title>
<polygon fill="#e38851" stroke="black" stroke-width="0" points="306.34,-310.98 129.84,-310.98 129.84,-253.48 306.34,-253.48 306.34,-310.98"/>
<text xml:space="preserve" text-anchor="middle" x="218.09" y="-293.68" font-family="Times,serif" font-size="14.00">AsyncWorkchain (88b7e1dd)</text>
<text xml:space="preserve" text-anchor="middle" x="218.09" y="-277.18" font-family="Times,serif" font-size="14.00">State: finished</text>
<text xml:space="preserve" text-anchor="middle" x="218.09" y="-260.68" font-family="Times,serif" font-size="14.00">Exit Code: 0</text>
</g>
<!-- N514&#45;&gt;N535 -->
<g id="edge33" class="edge">
<title>N514&#45;&gt;N535</title>
<path fill="none" stroke="#000000" stroke-dasharray="1,5" d="M487.64,-1154.89C381.02,-1137.04 217.09,-1100.32 217.09,-1043.2 217.09,-1043.2 217.09,-1043.2 217.09,-407.97 217.09,-379.31 217.36,-346.95 217.62,-322.37"/>
<polygon fill="#000000" stroke="#000000" points="221.12,-322.53 217.72,-312.49 214.12,-322.45 221.12,-322.53"/>
<text xml:space="preserve" text-anchor="middle" x="259.09" y="-728.67" font-family="Times,serif" font-size="14.00">CALL_WORK</text>
<text xml:space="preserve" text-anchor="middle" x="259.09" y="-712.17" font-family="Times,serif" font-size="14.00">CALL</text>
</g>
<!-- N537 -->
<g id="node14" class="node">
<title>N537</title>
<polygon fill="#e38851" stroke="black" stroke-width="0" points="1149.09,-310.98 977.09,-310.98 977.09,-253.48 1149.09,-253.48 1149.09,-310.98"/>
<text xml:space="preserve" text-anchor="middle" x="1063.09" y="-293.68" font-family="Times,serif" font-size="14.00">AsyncWorkchain (3ff6a62d)</text>
<text xml:space="preserve" text-anchor="middle" x="1063.09" y="-277.18" font-family="Times,serif" font-size="14.00">State: finished</text>
<text xml:space="preserve" text-anchor="middle" x="1063.09" y="-260.68" font-family="Times,serif" font-size="14.00">Exit Code: 0</text>
</g>
<!-- N514&#45;&gt;N537 -->
<g id="edge5" class="edge">
<title>N514&#45;&gt;N537</title>
<path fill="none" stroke="#000000" stroke-dasharray="1,5" d="M666.77,-1167.43C833.87,-1164.51 1176.09,-1145.96 1176.09,-1043.2 1176.09,-1043.2 1176.09,-1043.2 1176.09,-407.97 1176.09,-370.66 1147.98,-339.54 1119.8,-317.71"/>
<polygon fill="#000000" stroke="#000000" points="1122.02,-315 1111.9,-311.86 1117.85,-320.63 1122.02,-315"/>
<text xml:space="preserve" text-anchor="middle" x="1218.09" y="-728.67" font-family="Times,serif" font-size="14.00">CALL_WORK</text>
<text xml:space="preserve" text-anchor="middle" x="1218.09" y="-712.17" font-family="Times,serif" font-size="14.00">CALL</text>
</g>
<!-- N513 -->
<g id="node2" class="node">
<title>N513</title>
<ellipse fill="#8cd499" stroke="black" stroke-width="0" cx="577.09" cy="-1284.45" rx="103.56" ry="18"/>
<text xml:space="preserve" text-anchor="middle" x="577.09" y="-1279.4" font-family="Times,serif" font-size="14.00">JsonableData (00679f1a)</text>
</g>
<!-- N513&#45;&gt;N514 -->
<g id="edge1" class="edge">
<title>N513&#45;&gt;N514</title>
<path fill="none" stroke="#000000" stroke-dasharray="5,2" d="M577.09,-1266.66C577.09,-1252.23 577.09,-1230.79 577.09,-1211.74"/>
<polygon fill="#000000" stroke="#000000" points="580.59,-1211.78 577.09,-1201.78 573.59,-1211.78 580.59,-1211.78"/>
<text xml:space="preserve" text-anchor="middle" x="621.34" y="-1235.15" font-family="Times,serif" font-size="14.00">INPUT_WORK</text>
<text xml:space="preserve" text-anchor="middle" x="621.34" y="-1218.65" font-family="Times,serif" font-size="14.00">graph</text>
</g>
<!-- N518 -->
<g id="node4" class="node">
<title>N518</title>
<polygon fill="#de707f" stroke="black" stroke-width="0" points="752.22,-944.45 565.97,-944.45 565.97,-886.95 752.22,-886.95 752.22,-944.45"/>
<text xml:space="preserve" text-anchor="middle" x="659.09" y="-927.15" font-family="Times,serif" font-size="14.00">GenericCalculation (d9a3238e)</text>
<text xml:space="preserve" text-anchor="middle" x="659.09" y="-910.65" font-family="Times,serif" font-size="14.00">State: finished</text>
<text xml:space="preserve" text-anchor="middle" x="659.09" y="-894.15" font-family="Times,serif" font-size="14.00">Exit Code: 0</text>
</g>
<!-- N517&#45;&gt;N518 -->
<g id="edge35" class="edge">
<title>N517&#45;&gt;N518</title>
<path fill="none" stroke="#000000" stroke-dasharray="1,5" d="M709.51,-1013.56C704.76,-1007.79 700.05,-1001.59 696.09,-995.45 687.89,-982.72 680.44,-967.9 674.41,-954.56"/>
<polygon fill="#000000" stroke="#000000" points="677.72,-953.39 670.5,-945.64 671.31,-956.2 677.72,-953.39"/>
<text xml:space="preserve" text-anchor="middle" x="735.09" y="-982.15" font-family="Times,serif" font-size="14.00">CALL_CALC</text>
<text xml:space="preserve" text-anchor="middle" x="735.09" y="-965.65" font-family="Times,serif" font-size="14.00">CALL</text>
</g>
<!-- N523 -->
<g id="node6" class="node">
<title>N523</title>
<polygon fill="#de707f" fill-opacity="0.466667" stroke="black" stroke-width="0" points="1012.34,-944.45 859.84,-944.45 859.84,-886.95 1012.34,-886.95 1012.34,-944.45"/>
<text xml:space="preserve" text-anchor="middle" x="936.09" y="-927.15" font-family="Times,serif" font-size="14.00">create_future (d82958ee)</text>
<text xml:space="preserve" text-anchor="middle" x="936.09" y="-910.65" font-family="Times,serif" font-size="14.00">State: finished</text>
<text xml:space="preserve" text-anchor="middle" x="936.09" y="-894.15" font-family="Times,serif" font-size="14.00">Exit Code: 0</text>
</g>
<!-- N517&#45;&gt;N523 -->
<g id="edge30" class="edge">
<title>N517&#45;&gt;N523</title>
<path fill="none" stroke="#000000" stroke-dasharray="1,5" d="M779.7,-1013.57C809.89,-994.87 849.94,-970.06 881.95,-950.23"/>
<polygon fill="#000000" stroke="#000000" points="883.66,-953.29 890.32,-945.05 879.98,-947.34 883.66,-953.29"/>
<text xml:space="preserve" text-anchor="middle" x="898.51" y="-982.15" font-family="Times,serif" font-size="14.00">CALL_CALC</text>
<text xml:space="preserve" text-anchor="middle" x="898.51" y="-965.65" font-family="Times,serif" font-size="14.00">CALL</text>
</g>
<!-- N524 -->
<g id="node7" class="node">
<title>N524</title>
<ellipse fill="#8cd499" stroke="black" stroke-width="0" cx="930.09" cy="-788.96" rx="105.6" ry="18"/>
<text xml:space="preserve" text-anchor="middle" x="930.09" y="-783.91" font-family="Times,serif" font-size="14.00">JsonableData (12245343)</text>
</g>
<!-- N517&#45;&gt;N524 -->
<g id="edge17" class="edge">
<title>N517&#45;&gt;N524</title>
<path fill="none" stroke="#000000" stroke-dasharray="5,2" d="M762.43,-1013.47C766.86,-1007.85 771,-1001.72 774.09,-995.45 795.86,-951.22 770.29,-928.32 797.09,-886.95 818.7,-853.58 856.1,-827.84 885.74,-811.29"/>
<polygon fill="#000000" stroke="#000000" points="887.4,-814.37 894.53,-806.54 884.07,-808.21 887.4,-814.37"/>
<text xml:space="preserve" text-anchor="middle" x="824.09" y="-918.9" font-family="Times,serif" font-size="14.00">RETURN</text>
<text xml:space="preserve" text-anchor="middle" x="824.09" y="-902.4" font-family="Times,serif" font-size="14.00">future</text>
</g>
<!-- N519 -->
<g id="node5" class="node">
<title>N519</title>
<ellipse fill="#8cd499" stroke="black" stroke-width="0" cx="702.09" cy="-788.96" rx="104.65" ry="28.99"/>
<text xml:space="preserve" text-anchor="middle" x="702.09" y="-792.16" font-family="Times,serif" font-size="14.00">RemoteData (458c68f1)</text>
<text xml:space="preserve" text-anchor="middle" x="702.09" y="-775.66" font-family="Times,serif" font-size="14.00">@santis</text>
</g>
<!-- N518&#45;&gt;N519 -->
<g id="edge24" class="edge">
<title>N518&#45;&gt;N519</title>
<path fill="none" stroke="#000000" d="M668.63,-887.01C674.59,-869.73 682.34,-847.24 688.89,-828.27"/>
<polygon fill="#000000" stroke="#000000" points="692.13,-829.59 692.08,-818.99 685.51,-827.31 692.13,-829.59"/>
<text xml:space="preserve" text-anchor="middle" x="724.33" y="-855.65" font-family="Times,serif" font-size="14.00">CREATE</text>
<text xml:space="preserve" text-anchor="middle" x="724.33" y="-839.15" font-family="Times,serif" font-size="14.00">remote_folder</text>
</g>
<!-- N554 -->
<g id="node25" class="node">
<title>N554</title>
<ellipse fill="#8cd499" stroke="black" stroke-width="0" cx="484.09" cy="-788.96" rx="95.37" ry="18"/>
<text xml:space="preserve" text-anchor="middle" x="484.09" y="-783.91" font-family="Times,serif" font-size="14.00">FolderData (c50dbfe3)</text>
</g>
<!-- N518&#45;&gt;N554 -->
<g id="edge32" class="edge">
<title>N518&#45;&gt;N554</title>
<path fill="none" stroke="#000000" d="M620.25,-887.01C588.95,-864.7 545.47,-833.71 516.13,-812.79"/>
<polygon fill="#000000" stroke="#000000" points="518.17,-809.95 507.99,-807 514.11,-815.65 518.17,-809.95"/>
<text xml:space="preserve" text-anchor="middle" x="617.91" y="-855.65" font-family="Times,serif" font-size="14.00">CREATE</text>
<text xml:space="preserve" text-anchor="middle" x="617.91" y="-839.15" font-family="Times,serif" font-size="14.00">retrieved</text>
</g>
<!-- N523&#45;&gt;N524 -->
<g id="edge34" class="edge">
<title>N523&#45;&gt;N524</title>
<path fill="none" stroke="#000000" d="M934.76,-887.01C933.78,-866.59 932.44,-838.89 931.45,-818.31"/>
<polygon fill="#000000" stroke="#000000" points="934.95,-818.16 930.98,-808.34 927.96,-818.5 934.95,-818.16"/>
<text xml:space="preserve" text-anchor="middle" x="959.31" y="-855.65" font-family="Times,serif" font-size="14.00">CREATE</text>
<text xml:space="preserve" text-anchor="middle" x="959.31" y="-839.15" font-family="Times,serif" font-size="14.00">result</text>
</g>
<!-- N524&#45;&gt;N526 -->
<g id="edge9" class="edge">
<title>N524&#45;&gt;N526</title>
<path fill="none" stroke="#000000" stroke-dasharray="5,2" d="M877.33,-773.44C858.17,-768.59 836.26,-763.51 816.09,-759.97 742.46,-747.02 720.2,-764.25 648.84,-741.97 615.52,-731.56 581.08,-713.18 554.16,-696.8"/>
<polygon fill="#000000" stroke="#000000" points="556.22,-693.96 545.88,-691.67 552.54,-699.91 556.22,-693.96"/>
<text xml:space="preserve" text-anchor="middle" x="708.47" y="-728.67" font-family="Times,serif" font-size="14.00">INPUT_WORK</text>
<text xml:space="preserve" text-anchor="middle" x="708.47" y="-712.17" font-family="Times,serif" font-size="14.00">calc__futures__dep_0</text>
</g>
<!-- N527 -->
<g id="node9" class="node">
<title>N527</title>
<polygon fill="#de707f" stroke="black" stroke-width="0" points="838.72,-564.47 655.47,-564.47 655.47,-506.97 838.72,-506.97 838.72,-564.47"/>
<text xml:space="preserve" text-anchor="middle" x="747.09" y="-547.17" font-family="Times,serif" font-size="14.00">GenericCalculation (4f74d48f)</text>
<text xml:space="preserve" text-anchor="middle" x="747.09" y="-530.67" font-family="Times,serif" font-size="14.00">State: finished</text>
<text xml:space="preserve" text-anchor="middle" x="747.09" y="-514.17" font-family="Times,serif" font-size="14.00">Exit Code: 0</text>
</g>
<!-- N524&#45;&gt;N527 -->
<g id="edge16" class="edge">
<title>N524&#45;&gt;N527</title>
<path fill="none" stroke="#000000" d="M910.39,-771.52C889.32,-753.28 855.76,-722.29 832.09,-690.97 804.27,-654.14 779.71,-607.12 764.23,-574.73"/>
<polygon fill="#000000" stroke="#000000" points="767.41,-573.26 759.98,-565.71 761.08,-576.24 767.41,-573.26"/>
<text xml:space="preserve" text-anchor="middle" x="874.09" y="-665.42" font-family="Times,serif" font-size="14.00">INPUT_CALC</text>
<text xml:space="preserve" text-anchor="middle" x="874.09" y="-648.92" font-family="Times,serif" font-size="14.00">futures__dep_0</text>
</g>
<!-- N524&#45;&gt;N537 -->
<g id="edge4" class="edge">
<title>N524&#45;&gt;N537</title>
<path fill="none" stroke="#000000" stroke-dasharray="5,2" d="M955.33,-771.65C984.66,-750.5 1029.09,-710.63 1029.09,-663.22 1029.09,-663.22 1029.09,-663.22 1029.09,-407.97 1029.09,-378.19 1038.22,-345.77 1047.02,-321.45"/>
<polygon fill="#000000" stroke="#000000" points="1050.22,-322.89 1050.47,-312.3 1043.67,-320.42 1050.22,-322.89"/>
<text xml:space="preserve" text-anchor="middle" x="1088.72" y="-538.92" font-family="Times,serif" font-size="14.00">INPUT_WORK</text>
<text xml:space="preserve" text-anchor="middle" x="1088.72" y="-522.42" font-family="Times,serif" font-size="14.00">calc__futures__dep_0</text>
</g>
<!-- N540 -->
<g id="node17" class="node">
<title>N540</title>
<polygon fill="#de707f" stroke="black" stroke-width="0" points="1012.22,-184.48 825.97,-184.48 825.97,-126.98 1012.22,-126.98 1012.22,-184.48"/>
<text xml:space="preserve" text-anchor="middle" x="919.09" y="-167.18" font-family="Times,serif" font-size="14.00">GenericCalculation (8e0e891d)</text>
<text xml:space="preserve" text-anchor="middle" x="919.09" y="-150.68" font-family="Times,serif" font-size="14.00">State: finished</text>
<text xml:space="preserve" text-anchor="middle" x="919.09" y="-134.18" font-family="Times,serif" font-size="14.00">Exit Code: 0</text>
</g>
<!-- N524&#45;&gt;N540 -->
<g id="edge18" class="edge">
<title>N524&#45;&gt;N540</title>
<path fill="none" stroke="#000000" d="M930.09,-771.01C930.09,-747.01 930.09,-701.76 930.09,-663.22 930.09,-663.22 930.09,-663.22 930.09,-281.23 930.09,-252.52 927.15,-220.22 924.31,-195.71"/>
<polygon fill="#000000" stroke="#000000" points="927.8,-195.37 923.12,-185.86 920.85,-196.21 927.8,-195.37"/>
<text xml:space="preserve" text-anchor="middle" x="972.09" y="-475.67" font-family="Times,serif" font-size="14.00">INPUT_CALC</text>
<text xml:space="preserve" text-anchor="middle" x="972.09" y="-459.17" font-family="Times,serif" font-size="14.00">futures__dep_0</text>
</g>
<!-- N526&#45;&gt;N527 -->
<g id="edge12" class="edge">
<title>N526&#45;&gt;N527</title>
<path fill="none" stroke="#000000" stroke-dasharray="1,5" d="M558.02,-633.58C594.99,-614.65 644.19,-589.44 683.13,-569.48"/>
<polygon fill="#000000" stroke="#000000" points="684.66,-572.63 691.97,-564.96 681.47,-566.4 684.66,-572.63"/>
<text xml:space="preserve" text-anchor="middle" x="693.5" y="-602.17" font-family="Times,serif" font-size="14.00">CALL_CALC</text>
<text xml:space="preserve" text-anchor="middle" x="693.5" y="-585.67" font-family="Times,serif" font-size="14.00">CALL</text>
</g>
<!-- N532 -->
<g id="node11" class="node">
<title>N532</title>
<polygon fill="#de707f" fill-opacity="0.466667" stroke="black" stroke-width="0" points="581.09,-564.47 427.09,-564.47 427.09,-506.97 581.09,-506.97 581.09,-564.47"/>
<text xml:space="preserve" text-anchor="middle" x="504.09" y="-547.17" font-family="Times,serif" font-size="14.00">create_future (9762d1b3)</text>
<text xml:space="preserve" text-anchor="middle" x="504.09" y="-530.67" font-family="Times,serif" font-size="14.00">State: finished</text>
<text xml:space="preserve" text-anchor="middle" x="504.09" y="-514.17" font-family="Times,serif" font-size="14.00">Exit Code: 0</text>
</g>
<!-- N526&#45;&gt;N532 -->
<g id="edge31" class="edge">
<title>N526&#45;&gt;N532</title>
<path fill="none" stroke="#000000" stroke-dasharray="1,5" d="M504.09,-633.58C504.09,-616.58 504.09,-594.52 504.09,-575.75"/>
<polygon fill="#000000" stroke="#000000" points="507.59,-575.78 504.09,-565.78 500.59,-575.78 507.59,-575.78"/>
<text xml:space="preserve" text-anchor="middle" x="543.09" y="-602.17" font-family="Times,serif" font-size="14.00">CALL_CALC</text>
<text xml:space="preserve" text-anchor="middle" x="543.09" y="-585.67" font-family="Times,serif" font-size="14.00">CALL</text>
</g>
<!-- N533 -->
<g id="node12" class="node">
<title>N533</title>
<ellipse fill="#8cd499" stroke="black" stroke-width="0" cx="355.09" cy="-408.97" rx="103.56" ry="18"/>
<text xml:space="preserve" text-anchor="middle" x="355.09" y="-403.92" font-family="Times,serif" font-size="14.00">JsonableData (e7e3ee89)</text>
</g>
<!-- N526&#45;&gt;N533 -->
<g id="edge10" class="edge">
<title>N526&#45;&gt;N533</title>
<path fill="none" stroke="#000000" stroke-dasharray="5,2" d="M440.44,-633.47C411.99,-617.59 381.1,-594.73 364.09,-564.47 341.91,-525.01 345.03,-470.57 349.75,-437.96"/>
<polygon fill="#000000" stroke="#000000" points="353.2,-438.54 351.35,-428.11 346.29,-437.42 353.2,-438.54"/>
<text xml:space="preserve" text-anchor="middle" x="391.09" y="-538.92" font-family="Times,serif" font-size="14.00">RETURN</text>
<text xml:space="preserve" text-anchor="middle" x="391.09" y="-522.42" font-family="Times,serif" font-size="14.00">future</text>
</g>
<!-- N528 -->
<g id="node10" class="node">
<title>N528</title>
<ellipse fill="#8cd499" stroke="black" stroke-width="0" cx="796.09" cy="-408.97" rx="106.24" ry="28.99"/>
<text xml:space="preserve" text-anchor="middle" x="796.09" y="-412.17" font-family="Times,serif" font-size="14.00">RemoteData (16bc8738)</text>
<text xml:space="preserve" text-anchor="middle" x="796.09" y="-395.67" font-family="Times,serif" font-size="14.00">@santis</text>
</g>
<!-- N527&#45;&gt;N528 -->
<g id="edge8" class="edge">
<title>N527&#45;&gt;N528</title>
<path fill="none" stroke="#000000" d="M757.97,-507.03C764.75,-489.75 773.59,-467.26 781.04,-448.28"/>
<polygon fill="#000000" stroke="#000000" points="784.3,-449.58 784.69,-438.99 777.78,-447.02 784.3,-449.58"/>
<text xml:space="preserve" text-anchor="middle" x="816.05" y="-475.67" font-family="Times,serif" font-size="14.00">CREATE</text>
<text xml:space="preserve" text-anchor="middle" x="816.05" y="-459.17" font-family="Times,serif" font-size="14.00">remote_folder</text>
</g>
<!-- N539 -->
<g id="node16" class="node">
<title>N539</title>
<ellipse fill="#8cd499" stroke="black" stroke-width="0" cx="574.09" cy="-408.97" rx="97.93" ry="18"/>
<text xml:space="preserve" text-anchor="middle" x="574.09" y="-403.92" font-family="Times,serif" font-size="14.00">FolderData (36891d27)</text>
</g>
<!-- N527&#45;&gt;N539 -->
<g id="edge7" class="edge">
<title>N527&#45;&gt;N539</title>
<path fill="none" stroke="#000000" d="M708.7,-507.03C677.75,-484.72 634.76,-453.72 605.76,-432.81"/>
<polygon fill="#000000" stroke="#000000" points="607.89,-430.03 597.73,-427.02 603.79,-435.71 607.89,-430.03"/>
<text xml:space="preserve" text-anchor="middle" x="706.67" y="-475.67" font-family="Times,serif" font-size="14.00">CREATE</text>
<text xml:space="preserve" text-anchor="middle" x="706.67" y="-459.17" font-family="Times,serif" font-size="14.00">retrieved</text>
</g>
<!-- N532&#45;&gt;N533 -->
<g id="edge13" class="edge">
<title>N532&#45;&gt;N533</title>
<path fill="none" stroke="#000000" d="M471.02,-507.03C444.76,-485.04 408.41,-454.61 383.46,-433.72"/>
<polygon fill="#000000" stroke="#000000" points="385.89,-431.2 375.98,-427.46 381.4,-436.57 385.89,-431.2"/>
<text xml:space="preserve" text-anchor="middle" x="472.82" y="-475.67" font-family="Times,serif" font-size="14.00">CREATE</text>
<text xml:space="preserve" text-anchor="middle" x="472.82" y="-459.17" font-family="Times,serif" font-size="14.00">result</text>
</g>
<!-- N533&#45;&gt;N535 -->
<g id="edge23" class="edge">
<title>N533&#45;&gt;N535</title>
<path fill="none" stroke="#000000" stroke-dasharray="5,2" d="M302.09,-393.51C283.99,-386.43 264.82,-376.26 250.84,-361.98 240.05,-350.96 232.62,-335.87 227.6,-321.85"/>
<polygon fill="#000000" stroke="#000000" points="230.95,-320.81 224.54,-312.37 224.28,-322.96 230.95,-320.81"/>
<text xml:space="preserve" text-anchor="middle" x="310.47" y="-348.68" font-family="Times,serif" font-size="14.00">INPUT_WORK</text>
<text xml:space="preserve" text-anchor="middle" x="310.47" y="-332.18" font-family="Times,serif" font-size="14.00">calc__futures__dep_1</text>
</g>
<!-- N533&#45;&gt;N537 -->
<g id="edge3" class="edge">
<title>N533&#45;&gt;N537</title>
<path fill="none" stroke="#000000" stroke-dasharray="5,2" d="M408.12,-393.6C426.68,-388.86 447.73,-383.83 467.09,-379.98 520.42,-369.38 534.38,-370.43 588.09,-361.98 719.15,-341.37 870.28,-316.05 966.22,-299.78"/>
<polygon fill="#000000" stroke="#000000" points="966.59,-303.27 975.86,-298.14 965.41,-296.36 966.59,-303.27"/>
<text xml:space="preserve" text-anchor="middle" x="843.54" y="-348.68" font-family="Times,serif" font-size="14.00">INPUT_WORK</text>
<text xml:space="preserve" text-anchor="middle" x="843.54" y="-332.18" font-family="Times,serif" font-size="14.00">calc__futures__dep_1</text>
</g>
<!-- N538 -->
<g id="node15" class="node">
<title>N538</title>
<polygon fill="#de707f" stroke="black" stroke-width="0" points="476.22,-184.48 289.97,-184.48 289.97,-126.98 476.22,-126.98 476.22,-184.48"/>
<text xml:space="preserve" text-anchor="middle" x="383.09" y="-167.18" font-family="Times,serif" font-size="14.00">GenericCalculation (e125e201)</text>
<text xml:space="preserve" text-anchor="middle" x="383.09" y="-150.68" font-family="Times,serif" font-size="14.00">State: finished</text>
<text xml:space="preserve" text-anchor="middle" x="383.09" y="-134.18" font-family="Times,serif" font-size="14.00">Exit Code: 0</text>
</g>
<!-- N533&#45;&gt;N538 -->
<g id="edge15" class="edge">
<title>N533&#45;&gt;N538</title>
<path fill="none" stroke="#000000" d="M361.69,-391.21C364.78,-382.61 368.2,-371.88 370.09,-361.98 381.06,-304.73 383.32,-237.02 383.53,-195.48"/>
<polygon fill="#000000" stroke="#000000" points="387.03,-195.75 383.53,-185.75 380.03,-195.74 387.03,-195.75"/>
<text xml:space="preserve" text-anchor="middle" x="423.95" y="-285.43" font-family="Times,serif" font-size="14.00">INPUT_CALC</text>
<text xml:space="preserve" text-anchor="middle" x="423.95" y="-268.93" font-family="Times,serif" font-size="14.00">futures__dep_1</text>
</g>
<!-- N533&#45;&gt;N540 -->
<g id="edge2" class="edge">
<title>N533&#45;&gt;N540</title>
<path fill="none" stroke="#000000" d="M390.37,-392.26C481.17,-351.81 724.36,-243.48 846.7,-188.98"/>
<polygon fill="#000000" stroke="#000000" points="847.99,-192.24 855.7,-184.97 845.14,-185.84 847.99,-192.24"/>
<text xml:space="preserve" text-anchor="middle" x="735.16" y="-285.43" font-family="Times,serif" font-size="14.00">INPUT_CALC</text>
<text xml:space="preserve" text-anchor="middle" x="735.16" y="-268.93" font-family="Times,serif" font-size="14.00">futures__dep_1</text>
</g>
<!-- N535&#45;&gt;N538 -->
<g id="edge14" class="edge">
<title>N535&#45;&gt;N538</title>
<path fill="none" stroke="#000000" stroke-dasharray="1,5" d="M239.7,-253.76C253.48,-237.46 272.4,-217.18 292.09,-202.48 297.99,-198.08 304.39,-193.89 310.95,-189.98"/>
<polygon fill="#000000" stroke="#000000" points="312.39,-193.18 319.34,-185.19 308.92,-187.11 312.39,-193.18"/>
<text xml:space="preserve" text-anchor="middle" x="331.09" y="-222.18" font-family="Times,serif" font-size="14.00">CALL_CALC</text>
<text xml:space="preserve" text-anchor="middle" x="331.09" y="-205.68" font-family="Times,serif" font-size="14.00">CALL</text>
</g>
<!-- N547 -->
<g id="node21" class="node">
<title>N547</title>
<polygon fill="#de707f" fill-opacity="0.466667" stroke="black" stroke-width="0" points="181.72,-184.48 28.47,-184.48 28.47,-126.98 181.72,-126.98 181.72,-184.48"/>
<text xml:space="preserve" text-anchor="middle" x="105.09" y="-167.18" font-family="Times,serif" font-size="14.00">create_future (db74593a)</text>
<text xml:space="preserve" text-anchor="middle" x="105.09" y="-150.68" font-family="Times,serif" font-size="14.00">State: finished</text>
<text xml:space="preserve" text-anchor="middle" x="105.09" y="-134.18" font-family="Times,serif" font-size="14.00">Exit Code: 0</text>
</g>
<!-- N535&#45;&gt;N547 -->
<g id="edge11" class="edge">
<title>N535&#45;&gt;N547</title>
<path fill="none" stroke="#000000" stroke-dasharray="1,5" d="M146.66,-253.76C138.96,-248.58 131.85,-242.53 126.09,-235.48 116.93,-224.27 111.74,-209.43 108.8,-195.67"/>
<polygon fill="#000000" stroke="#000000" points="112.27,-195.19 107.1,-185.95 105.38,-196.4 112.27,-195.19"/>
<text xml:space="preserve" text-anchor="middle" x="165.09" y="-222.18" font-family="Times,serif" font-size="14.00">CALL_CALC</text>
<text xml:space="preserve" text-anchor="middle" x="165.09" y="-205.68" font-family="Times,serif" font-size="14.00">CALL</text>
</g>
<!-- N548 -->
<g id="node22" class="node">
<title>N548</title>
<ellipse fill="#8cd499" stroke="black" stroke-width="0" cx="105.09" cy="-28.99" rx="105.09" ry="18"/>
<text xml:space="preserve" text-anchor="middle" x="105.09" y="-23.94" font-family="Times,serif" font-size="14.00">JsonableData (011475be)</text>
</g>
<!-- N535&#45;&gt;N548 -->
<g id="edge6" class="edge">
<title>N535&#45;&gt;N548</title>
<path fill="none" stroke="#000000" stroke-dasharray="5,2" d="M216.37,-253.67C213.69,-222.17 207.07,-169.48 191.09,-126.98 181.75,-102.16 177.39,-96.09 160.09,-75.98 153.25,-68.03 144.95,-60.33 136.9,-53.57"/>
<polygon fill="#000000" stroke="#000000" points="139.16,-50.9 129.18,-47.34 134.76,-56.35 139.16,-50.9"/>
<text xml:space="preserve" text-anchor="middle" x="233.83" y="-158.93" font-family="Times,serif" font-size="14.00">RETURN</text>
<text xml:space="preserve" text-anchor="middle" x="233.83" y="-142.43" font-family="Times,serif" font-size="14.00">future</text>
</g>
<!-- N537&#45;&gt;N540 -->
<g id="edge21" class="edge">
<title>N537&#45;&gt;N540</title>
<path fill="none" stroke="#000000" stroke-dasharray="1,5" d="M1021.73,-253.71C1013.7,-247.93 1005.49,-241.7 998.09,-235.48 982.22,-222.16 965.82,-206.21 952.1,-192.17"/>
<polygon fill="#000000" stroke="#000000" points="954.87,-190 945.41,-185.24 949.84,-194.86 954.87,-190"/>
<text xml:space="preserve" text-anchor="middle" x="1037.09" y="-222.18" font-family="Times,serif" font-size="14.00">CALL_CALC</text>
<text xml:space="preserve" text-anchor="middle" x="1037.09" y="-205.68" font-family="Times,serif" font-size="14.00">CALL</text>
</g>
<!-- N552 -->
<g id="node23" class="node">
<title>N552</title>
<polygon fill="#de707f" fill-opacity="0.466667" stroke="black" stroke-width="0" points="1183.72,-184.48 1030.47,-184.48 1030.47,-126.98 1183.72,-126.98 1183.72,-184.48"/>
<text xml:space="preserve" text-anchor="middle" x="1107.09" y="-167.18" font-family="Times,serif" font-size="14.00">create_future (c7796517)</text>
<text xml:space="preserve" text-anchor="middle" x="1107.09" y="-150.68" font-family="Times,serif" font-size="14.00">State: finished</text>
<text xml:space="preserve" text-anchor="middle" x="1107.09" y="-134.18" font-family="Times,serif" font-size="14.00">Exit Code: 0</text>
</g>
<!-- N537&#45;&gt;N552 -->
<g id="edge25" class="edge">
<title>N537&#45;&gt;N552</title>
<path fill="none" stroke="#000000" stroke-dasharray="1,5" d="M1072.86,-253.6C1078.95,-236.36 1086.88,-213.91 1093.58,-194.97"/>
<polygon fill="#000000" stroke="#000000" points="1096.82,-196.31 1096.85,-185.71 1090.22,-193.98 1096.82,-196.31"/>
<text xml:space="preserve" text-anchor="middle" x="1129.33" y="-222.18" font-family="Times,serif" font-size="14.00">CALL_CALC</text>
<text xml:space="preserve" text-anchor="middle" x="1129.33" y="-205.68" font-family="Times,serif" font-size="14.00">CALL</text>
</g>
<!-- N553 -->
<g id="node24" class="node">
<title>N553</title>
<ellipse fill="#8cd499" stroke="black" stroke-width="0" cx="1220.09" cy="-28.99" rx="104.58" ry="18"/>
<text xml:space="preserve" text-anchor="middle" x="1220.09" y="-23.94" font-family="Times,serif" font-size="14.00">JsonableData (9c0e1119)</text>
</g>
<!-- N537&#45;&gt;N553 -->
<g id="edge28" class="edge">
<title>N537&#45;&gt;N553</title>
<path fill="none" stroke="#000000" stroke-dasharray="5,2" d="M1148.28,-253.55C1156.98,-248.45 1165.15,-242.47 1172.09,-235.48 1219.64,-187.61 1223.62,-102.25 1222.1,-58.13"/>
<polygon fill="#000000" stroke="#000000" points="1225.61,-58.18 1221.64,-48.36 1218.62,-58.51 1225.61,-58.18"/>
<text xml:space="preserve" text-anchor="middle" x="1245.48" y="-158.93" font-family="Times,serif" font-size="14.00">RETURN</text>
<text xml:space="preserve" text-anchor="middle" x="1245.48" y="-142.43" font-family="Times,serif" font-size="14.00">future</text>
</g>
<!-- N541 -->
<g id="node18" class="node">
<title>N541</title>
<ellipse fill="#8cd499" stroke="black" stroke-width="0" cx="334.09" cy="-28.99" rx="106.24" ry="28.99"/>
<text xml:space="preserve" text-anchor="middle" x="334.09" y="-32.19" font-family="Times,serif" font-size="14.00">RemoteData (262079ed)</text>
<text xml:space="preserve" text-anchor="middle" x="334.09" y="-15.69" font-family="Times,serif" font-size="14.00">@santis</text>
</g>
<!-- N538&#45;&gt;N541 -->
<g id="edge20" class="edge">
<title>N538&#45;&gt;N541</title>
<path fill="none" stroke="#000000" d="M372.22,-127.05C365.43,-109.77 356.59,-87.28 349.14,-68.3"/>
<polygon fill="#000000" stroke="#000000" points="352.4,-67.03 345.49,-59.01 345.89,-69.59 352.4,-67.03"/>
<text xml:space="preserve" text-anchor="middle" x="403.05" y="-95.68" font-family="Times,serif" font-size="14.00">CREATE</text>
<text xml:space="preserve" text-anchor="middle" x="403.05" y="-79.18" font-family="Times,serif" font-size="14.00">remote_folder</text>
</g>
<!-- N543 -->
<g id="node20" class="node">
<title>N543</title>
<ellipse fill="#8cd499" stroke="black" stroke-width="0" cx="556.09" cy="-28.99" rx="97.41" ry="18"/>
<text xml:space="preserve" text-anchor="middle" x="556.09" y="-23.94" font-family="Times,serif" font-size="14.00">FolderData (8cb34b16)</text>
</g>
<!-- N538&#45;&gt;N543 -->
<g id="edge29" class="edge">
<title>N538&#45;&gt;N543</title>
<path fill="none" stroke="#000000" d="M421.49,-127.05C452.43,-104.74 495.42,-73.74 524.42,-52.83"/>
<polygon fill="#000000" stroke="#000000" points="526.39,-55.72 532.45,-47.04 522.29,-50.05 526.39,-55.72"/>
<text xml:space="preserve" text-anchor="middle" x="515.67" y="-95.68" font-family="Times,serif" font-size="14.00">CREATE</text>
<text xml:space="preserve" text-anchor="middle" x="515.67" y="-79.18" font-family="Times,serif" font-size="14.00">retrieved</text>
</g>
<!-- N542 -->
<g id="node19" class="node">
<title>N542</title>
<ellipse fill="#8cd499" stroke="black" stroke-width="0" cx="778.09" cy="-28.99" rx="106.77" ry="28.99"/>
<text xml:space="preserve" text-anchor="middle" x="778.09" y="-32.19" font-family="Times,serif" font-size="14.00">RemoteData (3d5890d7)</text>
<text xml:space="preserve" text-anchor="middle" x="778.09" y="-15.69" font-family="Times,serif" font-size="14.00">@santis</text>
</g>
<!-- N540&#45;&gt;N542 -->
<g id="edge26" class="edge">
<title>N540&#45;&gt;N542</title>
<path fill="none" stroke="#000000" d="M887.8,-127.05C866.88,-108.55 839.22,-84.07 816.9,-64.33"/>
<polygon fill="#000000" stroke="#000000" points="819.27,-61.75 809.46,-57.74 814.63,-66.99 819.27,-61.75"/>
<text xml:space="preserve" text-anchor="middle" x="903.99" y="-95.68" font-family="Times,serif" font-size="14.00">CREATE</text>
<text xml:space="preserve" text-anchor="middle" x="903.99" y="-79.18" font-family="Times,serif" font-size="14.00">remote_folder</text>
</g>
<!-- N555 -->
<g id="node26" class="node">
<title>N555</title>
<ellipse fill="#8cd499" stroke="black" stroke-width="0" cx="1000.09" cy="-28.99" rx="97.41" ry="18"/>
<text xml:space="preserve" text-anchor="middle" x="1000.09" y="-23.94" font-family="Times,serif" font-size="14.00">FolderData (17278e80)</text>
</g>
<!-- N540&#45;&gt;N555 -->
<g id="edge36" class="edge">
<title>N540&#45;&gt;N555</title>
<path fill="none" stroke="#000000" d="M937.07,-127.05C950.77,-105.95 969.51,-77.09 982.98,-56.34"/>
<polygon fill="#000000" stroke="#000000" points="985.8,-58.43 988.31,-48.14 979.93,-54.62 985.8,-58.43"/>
<text xml:space="preserve" text-anchor="middle" x="994.73" y="-95.68" font-family="Times,serif" font-size="14.00">CREATE</text>
<text xml:space="preserve" text-anchor="middle" x="994.73" y="-79.18" font-family="Times,serif" font-size="14.00">retrieved</text>
</g>
<!-- N547&#45;&gt;N548 -->
<g id="edge22" class="edge">
<title>N547&#45;&gt;N548</title>
<path fill="none" stroke="#000000" d="M105.09,-127.05C105.09,-106.62 105.09,-78.92 105.09,-58.34"/>
<polygon fill="#000000" stroke="#000000" points="108.59,-58.38 105.09,-48.38 101.59,-58.38 108.59,-58.38"/>
<text xml:space="preserve" text-anchor="middle" x="130.59" y="-95.68" font-family="Times,serif" font-size="14.00">CREATE</text>
<text xml:space="preserve" text-anchor="middle" x="130.59" y="-79.18" font-family="Times,serif" font-size="14.00">result</text>
</g>
<!-- N552&#45;&gt;N553 -->
<g id="edge19" class="edge">
<title>N552&#45;&gt;N553</title>
<path fill="none" stroke="#000000" d="M1120.2,-127.34C1128.73,-111.27 1140.88,-91.2 1155.09,-75.98 1163.09,-67.42 1172.91,-59.49 1182.48,-52.7"/>
<polygon fill="#000000" stroke="#000000" points="1184.32,-55.68 1190.63,-47.17 1180.39,-49.89 1184.32,-55.68"/>
<text xml:space="preserve" text-anchor="middle" x="1180.59" y="-95.68" font-family="Times,serif" font-size="14.00">CREATE</text>
<text xml:space="preserve" text-anchor="middle" x="1180.59" y="-79.18" font-family="Times,serif" font-size="14.00">result</text>
</g>
</g>
</svg>
